<?xml version="1.0" standalone="no"?>
<!DOCTYPE svg PUBLIC "-//W3C//DTD SVG 20010904//EN"
 "http://www.w3.org/TR/2001/REC-SVG-20010904/DTD/svg10.dtd">
<svg version="1.0" xmlns="http://www.w3.org/2000/svg"
 width="500.000000pt" height="500.000000pt" viewBox="0 0 500.000000 500.000000"
 preserveAspectRatio="xMidYMid meet">

<g transform="translate(0.000000,500.000000) scale(0.100000,-0.100000)"
fill="#000000" stroke="none">
<path d="M1874 3280 c-75 -10 -190 -58 -253 -104 -68 -51 -160 -173 -193 -254
-73 -182 -55 -400 48 -607 96 -192 231 -325 409 -406 216 -98 474 -40 642 144
134 147 182 403 119 632 -39 144 -110 263 -230 386 -155 159 -353 235 -542
209z m254 -135 c70 -22 222 -124 267 -179 165 -201 221 -412 165 -615 -27 -96
-51 -142 -116 -222 -89 -109 -201 -155 -359 -147 -84 5 -98 8 -181 51 -65 35
-110 68 -169 125 -95 93 -152 183 -197 314 -29 84 -32 104 -33 213 0 115 2
124 35 205 27 67 46 96 91 140 60 59 150 113 215 129 56 14 220 6 282 -14z"/>
<path d="M1420 3145 c-7 -9 -11 -17 -9 -20 3 -2 10 5 17 15 14 24 10 26 -8 5z"/>
<path d="M1355 3130 c-3 -5 -1 -10 4 -10 6 0 11 5 11 10 0 6 -2 10 -4 10 -3 0
-8 -4 -11 -10z"/>
<path d="M1388 3128 c-7 -16 7 -45 14 -32 3 5 2 18 -2 28 -5 16 -8 17 -12 4z"/>
<path d="M1314 3058 c-127 -250 -123 -533 12 -817 99 -210 284 -393 479 -474
159 -65 236 -79 395 -68 32 3 33 4 11 12 -18 7 -22 15 -19 34 5 24 3 25 -49
25 -238 0 -530 167 -682 390 -44 64 -79 130 -116 215 -83 190 -72 430 29 668
9 21 12 37 6 37 -5 0 -10 -5 -10 -12 0 -6 -3 -8 -6 -5 -4 4 -2 13 4 20 7 8 9
17 5 20 -16 17 -35 3 -59 -45z"/>
<path d="M2840 2950 c0 -11 4 -20 9 -20 5 0 7 9 4 20 -3 11 -7 20 -9 20 -2 0
-4 -9 -4 -20z"/>
<path d="M2855 2910 c4 -6 2 -17 -5 -25 -8 -10 -7 -16 8 -27 11 -7 26 -32 33
-56 6 -23 14 -40 17 -38 2 3 -1 20 -6 38 -6 18 -16 52 -22 76 -6 23 -15 42
-21 42 -6 0 -7 -5 -4 -10z"/>
<path d="M2820 2889 c0 -11 5 -17 10 -14 6 3 10 13 10 21 0 8 -4 14 -10 14 -5
0 -10 -9 -10 -21z"/>
<path d="M2910 2703 c-3 -23 -2 -39 3 -34 5 5 7 24 5 42 -3 33 -4 33 -8 -8z"/>
<path d="M2923 2615 c0 -22 2 -30 4 -17 2 12 2 30 0 40 -3 9 -5 -1 -4 -23z"/>
<path d="M2735 2218 c-15 -18 -32 -43 -38 -57 -10 -21 -8 -26 13 -40 13 -9 45
-31 70 -50 25 -19 77 -53 115 -76 39 -23 132 -83 208 -133 76 -51 141 -92 144
-92 3 0 21 -11 39 -25 33 -25 33 -25 76 -9 24 10 51 24 61 32 20 18 23 56 5
72 -19 16 -179 119 -210 136 -15 8 -89 54 -163 102 -201 129 -271 172 -283
172 -6 0 -22 -15 -37 -32z m450 -279 c11 -17 2 -18 -19 -3 -17 12 -17 14 -4
14 9 0 20 -5 23 -11z m35 -24 c11 -13 10 -14 -4 -9 -9 3 -16 10 -16 15 0 13 6
11 20 -6z m101 -72 c10 -12 5 -11 -18 6 -18 12 -33 24 -33 27 0 9 37 -15 51
-33z"/>
<path d="M4100 2067 c-74 -45 -146 -88 -160 -94 -14 -7 -86 -48 -160 -91 -116
-68 -135 -77 -138 -61 -4 24 -22 25 -22 2 0 -10 -11 -42 -25 -70 -13 -29 -20
-53 -14 -53 6 0 7 -4 4 -10 -3 -5 -2 -10 3 -10 5 0 17 18 27 40 14 32 29 45
71 64 29 13 101 53 161 87 85 49 232 129 238 129 0 0 -1 -28 -3 -62 -1 -35 1
-96 5 -136 7 -68 9 -72 26 -60 16 12 19 33 23 147 2 73 7 137 9 142 3 4 28 20
55 35 42 23 50 32 50 56 0 15 -3 28 -7 28 -5 0 -69 -38 -143 -83z"/>
<path d="M2632 1969 c-15 -18 -25 -47 -28 -77 -2 -29 -10 -52 -21 -59 -9 -7
-13 -13 -9 -13 5 0 30 18 56 40 26 22 54 40 61 40 12 0 303 -193 519 -344 82
-57 117 -71 137 -54 17 14 17 68 1 68 -7 0 -38 17 -69 38 -544 362 -593 393
-616 391 -4 0 -19 -13 -31 -30z"/>
<path d="M911 1951 c-18 -32 -13 -50 15 -57 21 -6 25 -11 19 -32 -10 -41 -7
-209 6 -255 38 -142 135 -229 265 -240 55 -4 79 -14 245 -109 177 -101 335
-189 599 -336 69 -38 178 -99 243 -136 91 -53 123 -67 142 -62 24 6 365 182
557 286 47 26 136 72 197 101 60 30 110 57 111 62 0 4 -11 7 -25 7 -14 0 -30
9 -37 19 -12 19 -14 19 -53 -13 -22 -18 -63 -45 -92 -61 -29 -15 -60 -35 -71
-44 -21 -19 -37 -27 -329 -176 -121 -63 -224 -111 -227 -108 -3 4 -6 1 -6 -5
0 -21 -26 -13 -71 23 -48 37 -65 47 -235 139 -60 32 -132 72 -161 89 -28 16
-54 29 -58 28 -4 -2 -11 1 -14 6 -16 24 -68 54 -115 67 -29 9 -73 31 -97 51
-24 19 -49 35 -54 35 -13 0 -81 34 -99 49 -7 6 -33 22 -57 35 -78 41 -144 78
-154 86 -5 5 -61 21 -124 36 -134 32 -170 57 -209 144 -27 61 -39 167 -28 245
l8 47 36 -7 c109 -19 209 -61 329 -139 38 -24 120 -72 183 -107 63 -35 185
-103 270 -153 85 -49 184 -105 220 -124 36 -19 106 -58 155 -87 50 -29 122
-69 162 -90 l71 -37 49 24 c26 14 118 63 203 110 85 46 180 96 210 110 81 36
144 78 133 89 -5 5 -130 -53 -297 -137 l-289 -145 -146 88 c-80 48 -154 91
-164 95 -9 4 -66 36 -125 71 -59 35 -145 84 -192 109 -88 47 -206 116 -281
164 -24 16 -84 47 -132 70 -49 23 -83 45 -77 49 5 3 8 11 4 16 -3 5 -10 7 -15
3 -5 -3 -22 1 -38 9 -21 11 -32 12 -40 4 -8 -8 -11 -8 -11 1 0 7 -9 12 -20 12
-11 0 -20 5 -20 11 0 8 -6 7 -17 -2 -9 -8 -14 -9 -10 -3 8 14 -53 44 -138 68
-33 10 -68 19 -77 22 -10 3 -21 -3 -27 -15z"/>
<path d="M2574 1899 c-19 -22 -19 -22 4 -10 12 6 22 16 22 21 0 15 -5 12 -26
-11z"/>
<path d="M3631 1864 c0 -11 3 -14 6 -6 3 7 2 16 -1 19 -3 4 -6 -2 -5 -13z"/>
<path d="M3439 1758 c-1 -7 -2 -22 -1 -33 0 -11 -5 -23 -10 -26 -7 -4 -6 -9 1
-13 11 -7 41 48 41 74 0 15 -30 12 -31 -2z"/>
<path d="M2385 1750 c-7 -12 2 -12 30 0 19 8 19 9 -2 9 -12 1 -25 -3 -28 -9z"/>
<path d="M4084 1627 c-145 -74 -327 -161 -355 -170 -8 -3 -27 -28 -42 -56
l-26 -52 92 49 c51 27 143 77 206 110 62 34 153 81 202 104 75 35 89 45 89 65
0 12 -6 23 -12 22 -7 0 -76 -33 -154 -72z"/>
<path d="M1320 1556 c0 -47 24 -71 35 -35 4 10 11 19 16 19 5 0 9 5 9 11 0 5
-3 8 -7 6 -9 -6 -34 19 -27 26 3 2 -2 7 -11 10 -12 5 -15 -2 -15 -37z"/>
<path d="M1292 1451 c-11 -7 -11 -9 2 -14 10 -4 16 -1 16 8 0 17 -1 17 -18 6z"/>
</g>
</svg>
